PathFileType	3	(X/Y/Z)	walking_1__view2_aligned.trc
DataRate	CameraRate	NumFrames	NumMarkers	Units	OrigDataRate	OrigDataStartFrame	OrigNumFrames
100.0	100.0	10	19	mm	100.0	5342	6105
Frame#	Time	pelvis			neck			head			hip_left			hip_right			knee_left			knee_right			ankle_left			ankle_right			heel_left			heel_right			toe_left			toe_right			shoulder_left			shoulder_right			elbow_left			elbow_right			wrist_left			wrist_right			
		X1	Y1	Z1	X2	Y2	Z2	X3	Y3	Z3	X4	Y4	Z4	X5	Y5	Z5	X6	Y6	Z6	X7	Y7	Z7	X8	Y8	Z8	X9	Y9	Z9	X10	Y10	Z10	X11	Y11	Z11	X12	Y12	Z12	X13	Y13	Z13	X14	Y14	Z14	X15	Y15	Z15	X16	Y16	Z16	X17	Y17	Z17	X18	Y18	Z18	X19	Y19	Z19	
5342	53.41000	34.860889	930.403087	168.690167	15.250050	1503.795143	225.977344	-7.514553	1638.838937	347.571740	111.819724	933.530400	167.498442	-42.098067	927.275784	169.881895	147.922649	492.699469	125.807019	-68.160813	540.614971	388.667022	140.834065	153.468100	-102.209381	-82.216954	121.499302	413.259867	134.041657	124.367628	-151.320598	-80.754065	67.589796	385.440253	152.379862	28.811531	35.364883	-98.216597	82.407483	610.421931	201.576867	1445.392150	219.469714	-156.010546	1436.904739	169.427110	275.450472	1160.331817	241.303974	-209.917992	1151.895708	104.414780	258.892451	927.853967	380.589380	-282.913961	879.964742	97.789584
5343	53.42000	32.409986	930.502348	169.117414	12.510535	1503.949316	226.147560	-10.094291	1639.184025	347.664218	109.330370	933.545261	167.944536	-44.510448	927.459438	170.290302	147.185661	492.899691	128.428899	-68.847621	539.216359	386.254312	140.672853	157.913275	-106.624522	-81.878462	118.318937	414.330831	133.922008	129.943040	-156.351766	-80.485758	63.785699	386.863027	152.339698	30.089979	27.845393	-96.942899	80.971543	613.176480	198.958899	1445.514864	219.683300	-158.952741	1436.805590	169.980196	272.654173	1160.499526	241.840344	-212.246740	1151.768792	104.924881	255.306926	928.413671	381.277739	-283.473277	880.337878	98.155397
5344	53.43000	29.959083	930.601608	169.544660	9.771019	1504.103489	226.317776	-12.674029	1639.529113	347.756696	106.841017	933.560122	168.390630	-46.922828	927.643092	170.698708	146.448673	493.099913	131.050778	-69.534429	537.817747	383.841602	140.511641	162.358450	-111.039664	-81.539970	115.138573	415.401794	133.802358	135.518451	-161.382933	-80.217451	59.981602	388.285801	152.299534	31.368428	20.325904	-95.669202	79.535602	615.931029	196.340931	1445.637578	219.896887	-161.894936	1436.706441	170.533282	269.857873	1160.667235	242.376715	-214.575488	1151.641876	105.434982	251.721401	928.973375	381.966098	-284.032593	880.711014	98.521210
5345	53.44000	27.508180	930.700869	169.971907	7.031504	1504.257662	226.487991	-15.253767	1639.874201	347.849173	104.351664	933.574983	168.836724	-49.335208	927.826746	171.107114	145.711684	493.300134	133.672658	-70.221237	536.419135	381.428892	140.350429	166.803625	-115.454805	-81.201478	111.958208	416.472758	133.682708	141.093862	-166.414101	-79.949144	56.177504	389.708575	152.259370	32.646876	12.806414	-94.395504	78.099662	618.685578	193.722963	1445.760292	220.110473	-164.837131	1436.607293	171.086369	267.061574	1160.834944	242.913085	-216.904235	1151.514960	105.945083	248.135876	929.533078	382.654457	-284.591910	881.084150	98.887022
5346	53.45000	25.057277	930.800130	170.399154	4.291988	1504.411834	226.658207	-17.833504	1640.219289	347.941651	101.862310	933.589844	169.282819	-51.747588	928.010400	171.515521	144.974696	493.500356	136.294537	-70.908045	535.020522	379.016182	140.189218	171.248800	-119.869947	-80.862986	108.777844	417.543721	133.563058	146.669274	-171.445269	-79.680838	52.373407	391.131350	152.219206	33.925325	5.286924	-93.121806	76.663721	621.440127	191.104995	1445.883006	220.324060	-167.779325	1436.508144	171.639455	264.265275	1161.002653	243.449456	-219.232983	1151.388044	106.455184	244.550352	930.092782	383.342816	-285.151226	881.457286	99.252835
5347	53.46000	22.606375	930.899391	170.826400	1.552473	1504.566007	226.828423	-20.413242	1640.564377	348.034129	99.372957	933.604705	169.728913	-54.159968	928.194053	171.923927	144.237708	493.700578	138.916417	-71.594853	533.621910	376.603472	140.028006	175.693974	-124.285088	-80.524494	105.597480	418.614684	133.443408	152.244685	-176.476437	-79.412531	48.569310	392.554124	152.179042	35.203773	-2.232565	-91.848109	75.227781	624.194676	188.487027	1446.005719	220.537647	-170.721520	1436.408995	172.192541	261.468976	1161.170362	243.985826	-221.561730	1151.261129	106.965285	240.964827	930.652486	384.031175	-285.710542	881.830422	99.618648
5348	53.47000	19.339022	931.429269	171.401232	-2.042344	1504.871164	226.672219	-23.774670	1640.987807	347.778494	96.056200	934.027158	170.331906	-57.377940	928.831359	172.470595	142.238415	494.837495	144.517077	-74.019271	532.253334	372.714022	138.612134	178.886355	-123.031275	-81.876598	104.967178	412.479938	132.203499	156.085624	-175.694500	-80.692463	48.099170	386.332085	150.130349	36.311300	-2.690065	-92.954546	74.356126	617.499552	184.755046	1446.555728	219.552780	-174.461871	1436.330885	173.320969	258.064843	1161.744693	242.648135	-224.452518	1150.843539	109.964874	238.826569	931.693581	383.109812	-285.534260	882.303016	105.028430
5349	53.48000	16.071670	931.959146	171.976064	-5.637161	1505.176322	226.516015	-27.136098	1641.411236	347.522859	92.739444	934.449610	170.934899	-60.595912	929.468664	173.017263	140.239122	495.974413	150.117738	-76.443689	530.884758	368.824572	137.196263	182.078735	-121.777462	-83.228702	104.336876	406.345192	130.963591	159.926564	-174.912564	-81.972396	47.629030	380.110046	148.081657	37.418828	-3.147565	-94.060983	73.484472	610.804429	181.023065	1447.105737	218.567914	-178.202222	1436.252775	174.449398	254.660710	1162.319025	241.310443	-227.343305	1150.425949	112.964464	236.688311	932.734676	382.188449	-285.357979	882.775611	110.438212
5350	53.49000	12.804317	932.489024	172.550895	-9.231977	1505.481479	226.359811	-30.497526	1641.834666	347.267224	89.422687	934.872062	171.537892	-63.813884	930.105969	173.563931	138.239829	497.111331	155.718398	-78.868107	529.516182	364.935122	135.780391	185.271115	-120.523649	-84.580807	103.706574	400.210445	129.723682	163.767503	-174.130628	-83.252328	47.158890	373.888007	146.032965	38.526355	-3.605065	-95.167420	72.612817	604.109305	177.291084	1447.655746	217.583047	-181.942573	1436.174665	175.577826	251.256576	1162.893356	239.972752	-230.234092	1150.008360	115.964053	234.550053	933.775771	381.267086	-285.181697	883.248205	115.847994
5351	53.50000	9.536965	933.018901	173.125727	-12.826794	1505.786636	226.203606	-33.858954	1642.258096	347.011589	86.105930	935.294514	172.140885	-67.031857	930.743274	174.110599	136.240536	498.248248	161.319059	-81.292525	528.147606	361.045671	134.364520	188.463495	-119.269836	-85.932911	103.076272	394.075699	128.483773	167.608442	-173.348692	-84.532261	46.688749	367.665968	143.984272	39.633883	-4.062565	-96.273858	71.741163	597.414182	173.559103	1448.205755	216.598180	-185.682923	1436.096555	176.706254	247.852443	1163.467687	238.635060	-233.124880	1149.590770	118.963643	232.411795	934.816866	380.345723	-285.005415	883.720800	121.257776
